<svg xmlns="http://www.w3.org/2000/svg" width="185" height="1" fill="none" preserveAspectRatio="none">
 <defs>
    <mask id="mask">
    <path fill="#fff" fill-rule="evenodd" d="M10.6 0 8 .3v.3H9l1.8-.1h1a.9.9 0 0 1 .3 0h2c1.7 0 1.8 0 1.6.2a60.7 60.7 0 0 0-1.1 0V.9a19.1 19.1 0 0 0 2.3 0H17.1a11.4 11.4 0 0 0 2.6 0V.7h-2c-1.4 0-1.2 0-1-.2H19l.3-.1c.3 0 .3 0-.2-.2l-.5-.1h-8.1zm15.3 0a6.6 6.6 0 0 1-.8.1v.1h1.2c.2-.2 0-.2-.4-.2zm3.7 0c0 .2-.5.3-1.2.4H28V.7h-.4l-.4.1 1.9.1-.3-.4h.7l.7-.1h.5l.6.1h-1a63.7 63.7 0 0 0-.9.2l.5.1h7.8c-.3-.2-.3-.3 0-.6h.2L34.4 0a1.5 1.5 0 0 1-.2 0 17.5 17.5 0 0 0-.9.2h.3c.2.2 0 .2 1.7.1h1.5l-.6.1-.5.2h-1.5c-1.7 0-1.6 0-1.4-.2.2 0 .3-.2.3-.2a80.5 80.5 0 0 0-1.3-.1L30.6 0h-1zm10 .2-1 .1H40l1.2.1h.3c.5 0 .6 0 .6.2 0 .1.1.2.6.2h.1l.8-.1h.5l.5.1.2-.2a54.9 54.9 0 0 0-.5-.3c.7-.2.6-.2.3-.2l-.3-.1h-4l-.8.2zm5.8-.1c-.3.1-.4 0 .6.2h.3l.4.3.5.3.6-.2.6-.3h6.2l.1.1h.1c1.3-.3 2-.3 4.1-.2h.7c.4 0 .4 0-.1-.2L59 0h-3.8a9.7 9.7 0 0 1-1.5 0h-3a6.7 6.7 0 0 1-1.2 0h-4.1zM62 0a172.3 172.3 0 0 0 4.5 0L66 0h-3.8l-.4.1zm67 0a680.1 680.1 0 0 0-2.4 0 1.1 1.1 0 0 0 0 .2c0 .2 0 .2.6.1H132.3c1.8 0 1.9 0 1.7.2a79 79 0 0 0-1.1 0V.9a18.3 18.3 0 0 0 1.4 0h1.3a12.3 12.3 0 0 0 2.5 0V.7H136c-1.3 0-1.2 0-1-.2h2.5l.3-.1c.3 0 .3 0-.3-.2L137 0H129zm15.4 0h-.9l.3.2h.6l.5-.3h-.2a2 2 0 0 0-.3 0zm3.7 0a.3.3 0 0 1-.1.1l-1.2.2h-.2V.7h-.4l-.3.1 1.2.1h.6l-.2-.2c-.2-.2-.3-.2.6-.3h1.2l.6.1h-1l-1 .1.7.2h7.7c-.4-.2-.3-.3.1-.6.1-.1.3-.1-1.3-.2h-2.2a.8.8 0 0 1-.2 0 29 29 0 0 0-.9.2l.3.1h.2a490 490 0 0 0 3 0l-1.2.3h-3a.5.5 0 0 1 .2-.2l.2-.2a91.8 91.8 0 0 0-1.2-.1L149 0h-1zm9.8 0a29.6 29.6 0 0 0-.8.2h1.3l1.3.1h.3c.5 0 .5 0 .6.2 0 .1 0 .2.5.2h.2l.8-.1h.5l.5.1.1-.2a76.4 76.4 0 0 0-1 0l.6-.3c.6-.2.6-.2.3-.2l-.3-.1h-4l-.9.2zm6 0c-.3.1-.4 0 .5.2.5 0 .4 0 .9.4l.4.3.6-.3.6-.3h6.2a1.4 1.4 0 0 0 .1.1h.2a11 11 0 0 1 4-.2h.7c.4 0 .4 0-.2-.2l-.4-.1h-8.2a6.9 6.9 0 0 1-1.3 0h-4.1zm16.5 0-.4.1a100.2 100.2 0 0 0 4.9 0l-.3-.2h-3.9l-.3.1zM4.3.1l-.4.2-.7-.1-.7-.1h-.8C.7.3.8.3 1 .4H1.9l1 .2h.6A11.8 11.8 0 0 0 6.4.2l-1-.1H4.4zm118.4 0a3.7 3.7 0 0 1-.4.2l-.7-.1-.7-.1h-.8c-1 .1-.9.1-.8.2h.2a3.2 3.2 0 0 0 .3 0h1l.5.2h.6c1 0 2.7-.2 2.8-.3L124 0a85.3 85.3 0 0 1-1.2 0zM26.8.1h.4l.4.2h1.1a4 4 0 0 0-.3-.2h-1.6zm118.4 0h.4l.4.2h1.1a4.3 4.3 0 0 0-.3-.1l-.4-.1h-1.2zM98.7.2h-4.4c-1 .2-1.4.3-1.5.5h-.6l-.5-.3h-4.2l-.1.1H86.6a50.6 50.6 0 0 0-1.5 0 16 16 0 0 1-2.4-.2H81l-.9.1-1 .1c-1-.2-1.6-.2-5.3 0h-2.4l-1.1.2-.5-.1H69a72.8 72.8 0 0 0-3.3.4h20c0-.1.2-.1.4 0h7.3V.7l.5.2.4.1h9.7a.6.6 0 0 0 .2-.2c.1-.2.4-.2 1.1-.2h.5l.4.1.4.2a72.7 72.7 0 0 0-.6 0l-.5-.1h-1.1V1l.1.1h4V.9l-.4-.1a40.7 40.7 0 0 1-.3 0V.5h1.6v.1l.1.2h2.1l.4-.1c.5-.2.5-.2.6 0V1h.9V.7a2 2 0 0 1-.4-.1h.4a.4.4 0 0 0 .1 0c.3 0 .4.1.3.2 0 .1 0 .2.7.2h.5l.2-.1.2-.1h.9l2-.5a2.7 2.7 0 0 0-.4 0l-.3-.1H104.5l-.9.2-1.8-.3h-.2a42.8 42.8 0 0 1-2.5 0 3 3 0 0 0-.4.1zm-76 0-.2.1h.7-.4zm1.5 0-.4.1h.8-.4zm117 0-.3.1h.7-.5zm1.4 0-.4.1h.7-.3zM51.3.6a2.2 2.2 0 0 0-.1 0l.5.2.2.1h.3l.3-.2-1-.1a.4.4 0 0 0-.2 0zm118.3 0 .2.1.4.2h.4l.3-.2a6.1 6.1 0 0 0-.5 0 92.8 92.8 0 0 1-.6-.1h-.2zM56 .5v.1l.1.1h.3V.5H56zm118.3 0 .2.2h.2V.5h-.4zm-15.2.2a7.2 7.2 0 0 0-.3.1h.7V.6l-.4.2zM40.7.7c-.4.2-.4.2 0 .2h.4V.7c0-.2 0-.2-.4 0zM59.2.6h.1a26.8 26.8 0 0 1 1 0h-1.1zm118.4 0h.1a24.2 24.2 0 0 1 .5 0h-.6zM0 .6c0 .3.1.4.7.4H2l.6-.2.6-.1h-.8L1.6.5h-1a37 37 0 0 0-.6 0zm118.4 0a.4.4 0 0 1 0 .1c0 .2.2.3.7.3h1.3l.6-.2.6-.1a53.9 53.9 0 0 0-1.6-.1h-1.6zM23.6.6l-.6.2-.3-.1H20.8l-.5.2h4c.4-.1.5-.2.1-.3h-.8zM142 .6l-.6.2h-.2l-.1-.1H139.6l-1 .2h4c.5 0 .5-.2.3-.3h-.9zM39.3.6H39l.7.3V.6h-.5zm6.3 0h-.4l.1.1.1.1.8-.2h-.6zm112 0h-.4l1 .3V.6h-.5zm6.3 0a6.2 6.2 0 0 0-.3 0l.2.2.7-.2H164zM3.1.6l1.2.2 1.5.1h2A209.9 209.9 0 0 0 10 1h-.5L7.8.8 3 .6zm118.4 0 1.2.2 1.5.1h2a56.5 56.5 0 0 0-4.7-.3zm-58 0 .3.2h.6l.6-.2a11.2 11.2 0 0 0-1.5 0zM182 .6l.1.1.2.1a23.6 23.6 0 0 0 1.2-.2H182zM12.9.8a3.5 3.5 0 0 0-.2.1h.2l1.2-.2a5.5 5.5 0 0 0-.4 0H13zm118.4 0c-.3.1-.3.1 0 .2l.6-.1.6-.2a9.9 9.9 0 0 0-.8 0h-.4zM61.4.9l-.2.1h3.4l.2-.1h-3.4zm119.4 0 3.2.1h.2l.2-.1h-3.6zM59 1l.2.1c.4 0 .3 0 0 0H59zm119.5 0 .3.1H178.5z" clip-rule="evenodd"/>
    </mask>
  </defs>
</svg>