<svg width="306" height="215" viewBox="0 0 306 215" fill="none" xmlns="http://www.w3.org/2000/svg">
<path d="M222.852 162.548C223.465 168.016 225.785 173.706 230.853 179.048C233.315 174.862 236.505 169.342 237.556 162.548C232.119 166.548 225.488 164.215 222.852 162.548Z" fill="black"/>
<path fill-rule="evenodd" clip-rule="evenodd" d="M230.853 113.048C212.853 138.048 187.653 188.448 230.853 190.048C283.853 189.548 233.853 118.048 230.853 113.048ZM230.853 133.548C219.353 141.548 203.253 162.948 230.853 184.548C241.353 172.548 259.353 156.548 230.853 133.548Z" fill="black"/>
<path d="M230.853 137.548C227.79 141.19 224.119 147.603 223.012 155.048C225.731 153.381 232.487 151.048 237.761 155.048C237.233 149.796 235.238 143.956 230.853 137.548Z" fill="black"/>
<path d="M223.012 155.048C224.119 147.603 227.79 141.19 230.853 137.548C235.238 143.956 237.233 149.796 237.761 155.048M223.012 155.048C225.731 153.381 232.487 151.048 237.761 155.048M223.012 155.048C222.654 157.459 222.565 159.979 222.852 162.548M237.761 155.048C238.027 157.698 237.92 160.199 237.556 162.548M222.852 162.548C223.465 168.016 225.785 173.706 230.853 179.048C233.315 174.862 236.505 169.342 237.556 162.548M222.852 162.548C225.488 164.215 232.119 166.548 237.556 162.548M230.853 113.048C212.853 138.048 187.653 188.448 230.853 190.048C283.853 189.548 233.853 118.048 230.853 113.048ZM230.853 133.548C219.353 141.548 203.253 162.948 230.853 184.548C241.353 172.548 259.353 156.548 230.853 133.548Z" stroke="black"/>
<path d="M144.852 186.548C145.465 192.016 147.785 197.706 152.853 203.048C155.315 198.862 158.505 193.342 159.556 186.548C154.119 190.548 147.488 188.215 144.852 186.548Z" fill="black"/>
<path fill-rule="evenodd" clip-rule="evenodd" d="M152.853 137.048C134.853 162.048 109.653 212.448 152.853 214.048C205.853 213.548 155.853 142.048 152.853 137.048ZM152.853 157.548C141.353 165.548 125.253 186.948 152.853 208.548C163.353 196.548 181.353 180.548 152.853 157.548Z" fill="black"/>
<path d="M152.853 161.548C149.79 165.19 146.119 171.603 145.012 179.048C147.731 177.381 154.487 175.048 159.761 179.048C159.233 173.796 157.238 167.956 152.853 161.548Z" fill="black"/>
<path d="M145.012 179.048C146.119 171.603 149.79 165.19 152.853 161.548C157.238 167.956 159.233 173.796 159.761 179.048M145.012 179.048C147.731 177.381 154.487 175.048 159.761 179.048M145.012 179.048C144.654 181.459 144.565 183.979 144.852 186.548M159.761 179.048C160.027 181.698 159.92 184.199 159.556 186.548M144.852 186.548C145.465 192.016 147.785 197.706 152.853 203.048C155.315 198.862 158.505 193.342 159.556 186.548M144.852 186.548C147.488 188.215 154.119 190.548 159.556 186.548M152.853 137.048C134.853 162.048 109.653 212.448 152.853 214.048C205.853 213.548 155.853 142.048 152.853 137.048ZM152.853 157.548C141.353 165.548 125.253 186.948 152.853 208.548C163.353 196.548 181.353 180.548 152.853 157.548Z" stroke="black"/>
<path d="M66.9993 163.548C67.6116 169.016 69.9318 174.706 75 180.048C77.4623 175.862 80.6523 170.342 81.7033 163.548C76.2659 167.548 69.6351 165.215 66.9993 163.548Z" fill="black"/>
<path fill-rule="evenodd" clip-rule="evenodd" d="M75 114.048C57 139.048 31.8 189.448 75 191.048C128 190.548 78 119.048 75 114.048ZM75 134.548C63.5 142.548 47.4 163.948 75 185.548C85.5 173.548 103.5 157.548 75 134.548Z" fill="black"/>
<path d="M75 138.548C71.9372 142.19 68.266 148.603 67.1594 156.048C69.8783 154.381 76.6345 152.048 81.9081 156.048C81.3805 150.796 79.3848 144.956 75 138.548Z" fill="black"/>
<path d="M67.1594 156.048C68.266 148.603 71.9372 142.19 75 138.548C79.3848 144.956 81.3805 150.796 81.9081 156.048M67.1594 156.048C69.8783 154.381 76.6345 152.048 81.9081 156.048M67.1594 156.048C66.801 158.459 66.7117 160.979 66.9993 163.548M81.9081 156.048C82.1743 158.698 82.0666 161.199 81.7033 163.548M66.9993 163.548C67.6116 169.016 69.9318 174.706 75 180.048C77.4623 175.862 80.6523 170.342 81.7033 163.548M66.9993 163.548C69.6351 165.215 76.2659 167.548 81.7033 163.548M75 114.048C57 139.048 31.8 189.448 75 191.048C128 190.548 78 119.048 75 114.048ZM75 134.548C63.5 142.548 47.4 163.948 75 185.548C85.5 173.548 103.5 157.548 75 134.548Z" stroke="black"/>
<path d="M75.1904 115.048C57.6904 140.048 33.1904 190.048 75.1904 190.048C117.19 190.048 92.6904 140.048 75.1904 115.048Z" fill="black" stroke="black" stroke-width="2"/>
<path d="M153.381 138.548C135.881 163.548 111.381 213.548 153.381 213.548C195.381 213.548 170.881 163.548 153.381 138.548Z" fill="black" stroke="black" stroke-width="2"/>
<path d="M231.381 115.548C213.881 140.548 189.381 190.548 231.381 190.548C273.381 190.548 248.881 140.548 231.381 115.548Z" fill="black" stroke="black" stroke-width="2"/>
<path d="M2 25.0479C64.5 47 164.5 84 304.5 25.0479C243.5 66 144.5 119.5 2 25.0479Z" fill="black" stroke="black" stroke-width="3"/>
<path fill-rule="evenodd" clip-rule="evenodd" d="M2.2984 25.6378C1.86034 25.7762 1.42754 25.9129 1 26.0479H110.003C110.271 49.8419 129.643 69.0478 153.5 69.0478C177.357 69.0478 196.729 49.8419 196.997 26.0479H304C148.508 -20.548 47.4555 11.3733 2.2984 25.6378Z" fill="black"/>
<path d="M1 26.0479L0.548445 24.6174L1 27.5479V26.0479ZM2.2984 25.6378L1.84658 24.2075L1.84658 24.2075L2.2984 25.6378ZM110.003 26.0479L111.503 26.031L111.486 24.5479H110.003V26.0479ZM196.997 26.0479V24.5479H195.514L195.497 26.031L196.997 26.0479ZM304 26.0479V27.5479L304.431 24.611L304 26.0479ZM1.45156 27.4783C1.87925 27.3433 2.31219 27.2065 2.75023 27.0681L1.84658 24.2075C1.40849 24.3458 0.975826 24.4825 0.548445 24.6174L1.45156 27.4783ZM110.003 24.5479H1V27.5479H110.003V24.5479ZM153.5 67.5478C130.465 67.5478 111.761 49.0041 111.503 26.031L108.503 26.0647C108.78 50.6796 128.82 70.5478 153.5 70.5478V67.5478ZM195.497 26.031C195.239 49.0041 176.535 67.5478 153.5 67.5478V70.5478C178.18 70.5478 198.22 50.6796 198.497 26.0647L195.497 26.031ZM304 24.5479H196.997V27.5479H304V24.5479ZM2.75023 27.0681C47.7776 12.8446 148.491 -18.9872 303.569 27.4847L304.431 24.611C148.526 -22.1087 47.1334 9.90197 1.84658 24.2075L2.75023 27.0681Z" fill="black"/>
</svg>
