<svg width="307" height="275" viewBox="0 0 307 275" fill="none" xmlns="http://www.w3.org/2000/svg">
<path d="M223.852 222.5C224.465 227.968 226.785 233.658 231.853 239C234.315 234.814 237.505 229.294 238.556 222.5C233.119 226.5 226.488 224.167 223.852 222.5Z" fill="black"/>
<path fill-rule="evenodd" clip-rule="evenodd" d="M231.853 173C213.853 198 188.653 248.4 231.853 250C284.853 249.5 234.853 178 231.853 173ZM231.853 193.5C220.353 201.5 204.253 222.9 231.853 244.5C242.353 232.5 260.353 216.5 231.853 193.5Z" fill="black"/>
<path d="M231.853 197.5C228.79 201.142 225.119 207.555 224.012 215C226.731 213.333 233.487 211 238.761 215C238.233 209.748 236.238 203.909 231.853 197.5Z" fill="black"/>
<path d="M224.012 215C225.119 207.555 228.79 201.142 231.853 197.5C236.238 203.909 238.233 209.748 238.761 215M224.012 215C226.731 213.333 233.487 211 238.761 215M224.012 215C223.654 217.411 223.565 219.931 223.852 222.5M238.761 215C239.027 217.651 238.92 220.151 238.556 222.5M223.852 222.5C224.465 227.968 226.785 233.658 231.853 239C234.315 234.814 237.505 229.294 238.556 222.5M223.852 222.5C226.488 224.167 233.119 226.5 238.556 222.5M231.853 173C213.853 198 188.653 248.4 231.853 250C284.853 249.5 234.853 178 231.853 173ZM231.853 193.5C220.353 201.5 204.253 222.9 231.853 244.5C242.353 232.5 260.353 216.5 231.853 193.5Z" stroke="black"/>
<path d="M145.852 246.5C146.465 251.968 148.785 257.658 153.853 263C156.315 258.814 159.505 253.294 160.556 246.5C155.119 250.5 148.488 248.167 145.852 246.5Z" fill="black"/>
<path fill-rule="evenodd" clip-rule="evenodd" d="M153.853 197C135.853 222 110.653 272.4 153.853 274C206.853 273.5 156.853 202 153.853 197ZM153.853 217.5C142.353 225.5 126.253 246.9 153.853 268.5C164.353 256.5 182.353 240.5 153.853 217.5Z" fill="black"/>
<path d="M153.853 221.5C150.79 225.142 147.119 231.555 146.012 239C148.731 237.333 155.487 235 160.761 239C160.233 233.748 158.238 227.909 153.853 221.5Z" fill="black"/>
<path d="M146.012 239C147.119 231.555 150.79 225.142 153.853 221.5C158.238 227.909 160.233 233.748 160.761 239M146.012 239C148.731 237.333 155.487 235 160.761 239M146.012 239C145.654 241.411 145.565 243.931 145.852 246.5M160.761 239C161.027 241.651 160.92 244.151 160.556 246.5M145.852 246.5C146.465 251.968 148.785 257.658 153.853 263C156.315 258.814 159.505 253.294 160.556 246.5M145.852 246.5C148.488 248.167 155.119 250.5 160.556 246.5M153.853 197C135.853 222 110.653 272.4 153.853 274C206.853 273.5 156.853 202 153.853 197ZM153.853 217.5C142.353 225.5 126.253 246.9 153.853 268.5C164.353 256.5 182.353 240.5 153.853 217.5Z" stroke="black"/>
<path d="M67.9993 223.5C68.6116 228.968 70.9318 234.658 76 240C78.4624 235.814 81.6523 230.294 82.7033 223.5C77.266 227.5 70.6351 225.167 67.9993 223.5Z" fill="black"/>
<path fill-rule="evenodd" clip-rule="evenodd" d="M76 174C58 199 32.8 249.4 76 251C129 250.5 79 179 76 174ZM76 194.5C64.5 202.5 48.4 223.9 76 245.5C86.5 233.5 104.5 217.5 76 194.5Z" fill="black"/>
<path d="M76 198.5C72.9372 202.142 69.266 208.555 68.1594 216C70.8783 214.333 77.6345 212 82.9081 216C82.3805 210.748 80.3848 204.909 76 198.5Z" fill="black"/>
<path d="M68.1594 216C69.266 208.555 72.9372 202.142 76 198.5C80.3848 204.909 82.3805 210.748 82.9081 216M68.1594 216C70.8783 214.333 77.6345 212 82.9081 216M68.1594 216C67.801 218.411 67.7117 220.931 67.9993 223.5M82.9081 216C83.1743 218.651 83.0666 221.151 82.7033 223.5M67.9993 223.5C68.6116 228.968 70.9318 234.658 76 240C78.4624 235.814 81.6523 230.294 82.7033 223.5M67.9993 223.5C70.6351 225.167 77.266 227.5 82.7033 223.5M76 174C58 199 32.8 249.4 76 251C129 250.5 79 179 76 174ZM76 194.5C64.5 202.5 48.4 223.9 76 245.5C86.5 233.5 104.5 217.5 76 194.5Z" stroke="black"/>
<path d="M76.1904 175C58.6904 200 34.1904 250 76.1904 250C118.19 250 93.6904 200 76.1904 175Z" fill="black" stroke="black" stroke-width="2"/>
<path d="M154.381 198.5C136.881 223.5 112.381 273.5 154.381 273.5C196.381 273.5 171.881 223.5 154.381 198.5Z" fill="black" stroke="black" stroke-width="2"/>
<path d="M232.381 175.5C214.881 200.5 190.381 250.5 232.381 250.5C274.381 250.5 249.881 200.5 232.381 175.5Z" fill="black" stroke="black" stroke-width="2"/>
<circle cx="154.5" cy="85.5" r="42.5" fill="black" stroke="black" stroke-width="2"/>
<path d="M3 85C52.288 126.551 182.655 190.522 305.5 85C251.67 139.917 155.83 252.356 3 85Z" fill="black" stroke="black" stroke-width="3"/>
<path d="M2 86C49.7363 22.6116 177.167 -66.1321 305 86C180.785 -25.2967 51.2438 39.6264 2 86Z" fill="black"/>
<path d="M2 86C49.7363 22.6116 177.167 -66.1321 305 86C180.785 -25.2967 51.2438 39.6264 2 86Z" stroke="black" stroke-width="3"/>
</svg>
