<svg width="306" height="247" viewBox="0 0 306 247" fill="none" xmlns="http://www.w3.org/2000/svg">
<path d="M222.852 194.5C223.465 199.968 225.785 205.658 230.853 211C233.315 206.814 236.505 201.294 237.556 194.5C232.119 198.5 225.488 196.167 222.852 194.5Z" fill="black"/>
<path fill-rule="evenodd" clip-rule="evenodd" d="M230.853 145C212.853 170 187.653 220.4 230.853 222C283.853 221.5 233.853 150 230.853 145ZM230.853 165.5C219.353 173.5 203.253 194.9 230.853 216.5C241.353 204.5 259.353 188.5 230.853 165.5Z" fill="black"/>
<path d="M230.853 169.5C227.79 173.142 224.119 179.555 223.012 187C225.731 185.333 232.487 183 237.761 187C237.233 181.748 235.238 175.909 230.853 169.5Z" fill="black"/>
<path d="M223.012 187C224.119 179.555 227.79 173.142 230.853 169.5C235.238 175.909 237.233 181.748 237.761 187M223.012 187C225.731 185.333 232.487 183 237.761 187M223.012 187C222.654 189.411 222.565 191.931 222.852 194.5M237.761 187C238.027 189.651 237.92 192.151 237.556 194.5M222.852 194.5C223.465 199.968 225.785 205.658 230.853 211C233.315 206.814 236.505 201.294 237.556 194.5M222.852 194.5C225.488 196.167 232.119 198.5 237.556 194.5M230.853 145C212.853 170 187.653 220.4 230.853 222C283.853 221.5 233.853 150 230.853 145ZM230.853 165.5C219.353 173.5 203.253 194.9 230.853 216.5C241.353 204.5 259.353 188.5 230.853 165.5Z" stroke="black"/>
<path d="M144.852 218.5C145.465 223.968 147.785 229.658 152.853 235C155.315 230.814 158.505 225.294 159.556 218.5C154.119 222.5 147.488 220.167 144.852 218.5Z" fill="black"/>
<path fill-rule="evenodd" clip-rule="evenodd" d="M152.853 169C134.853 194 109.653 244.4 152.853 246C205.853 245.5 155.853 174 152.853 169ZM152.853 189.5C141.353 197.5 125.253 218.9 152.853 240.5C163.353 228.5 181.353 212.5 152.853 189.5Z" fill="black"/>
<path d="M152.853 193.5C149.79 197.142 146.119 203.555 145.012 211C147.731 209.333 154.487 207 159.761 211C159.233 205.748 157.238 199.909 152.853 193.5Z" fill="black"/>
<path d="M145.012 211C146.119 203.555 149.79 197.142 152.853 193.5C157.238 199.909 159.233 205.748 159.761 211M145.012 211C147.731 209.333 154.487 207 159.761 211M145.012 211C144.654 213.411 144.565 215.931 144.852 218.5M159.761 211C160.027 213.651 159.92 216.151 159.556 218.5M144.852 218.5C145.465 223.968 147.785 229.658 152.853 235C155.315 230.814 158.505 225.294 159.556 218.5M144.852 218.5C147.488 220.167 154.119 222.5 159.556 218.5M152.853 169C134.853 194 109.653 244.4 152.853 246C205.853 245.5 155.853 174 152.853 169ZM152.853 189.5C141.353 197.5 125.253 218.9 152.853 240.5C163.353 228.5 181.353 212.5 152.853 189.5Z" stroke="black"/>
<path d="M66.9993 195.5C67.6116 200.968 69.9318 206.658 75 212C77.4624 207.814 80.6523 202.294 81.7033 195.5C76.266 199.5 69.6351 197.167 66.9993 195.5Z" fill="black"/>
<path fill-rule="evenodd" clip-rule="evenodd" d="M75 146C57 171 31.8 221.4 75 223C128 222.5 78 151 75 146ZM75 166.5C63.5 174.5 47.4 195.9 75 217.5C85.5 205.5 103.5 189.5 75 166.5Z" fill="black"/>
<path d="M75 170.5C71.9372 174.142 68.266 180.555 67.1594 188C69.8783 186.333 76.6345 184 81.9081 188C81.3805 182.748 79.3848 176.909 75 170.5Z" fill="black"/>
<path d="M67.1594 188C68.266 180.555 71.9372 174.142 75 170.5C79.3848 176.909 81.3805 182.748 81.9081 188M67.1594 188C69.8783 186.333 76.6345 184 81.9081 188M67.1594 188C66.801 190.411 66.7117 192.931 66.9993 195.5M81.9081 188C82.1743 190.651 82.0666 193.151 81.7033 195.5M66.9993 195.5C67.6116 200.968 69.9318 206.658 75 212C77.4624 207.814 80.6523 202.294 81.7033 195.5M66.9993 195.5C69.6351 197.167 76.266 199.5 81.7033 195.5M75 146C57 171 31.8 221.4 75 223C128 222.5 78 151 75 146ZM75 166.5C63.5 174.5 47.4 195.9 75 217.5C85.5 205.5 103.5 189.5 75 166.5Z" stroke="black"/>
<path d="M75.1904 147C57.6904 172 33.1904 222 75.1904 222C117.19 222 92.6904 172 75.1904 147Z" fill="black" stroke="black" stroke-width="2"/>
<path d="M153.381 170.5C135.881 195.5 111.381 245.5 153.381 245.5C195.381 245.5 170.881 195.5 153.381 170.5Z" fill="black" stroke="black" stroke-width="2"/>
<path d="M231.381 147.5C213.881 172.5 189.381 222.5 231.381 222.5C273.381 222.5 248.881 172.5 231.381 147.5Z" fill="black" stroke="black" stroke-width="2"/>
<path d="M2 57C61 85.5 170.5 136 304.5 57C248 106 136.5 178 2 57Z" fill="black" stroke="black" stroke-width="3"/>
<path fill-rule="evenodd" clip-rule="evenodd" d="M304 58C172.5 -38 58.5 7.99999 1 58C7.20678 56.2267 14.2509 53.7369 22.2124 50.9228C46.3553 42.3894 78.9339 30.8744 122.178 27.3142C114.637 35.1367 110 45.7768 110 57.5C110 81.5244 129.476 101 153.5 101C177.524 101 197 81.5244 197 57.5C197 46.1959 192.688 35.8989 185.62 28.1639C219.99 31.7614 259.248 40.7157 304 58Z" fill="black"/>
<path d="M1 58L0.0157316 56.8681L1.41208 59.4423L1 58ZM304 58L303.46 59.3993L304.884 56.7885L304 58ZM22.2124 50.9228L22.7123 52.3371L22.7123 52.3371L22.2124 50.9228ZM122.178 27.3142L123.258 28.3552L126.017 25.4931L122.055 25.8192L122.178 27.3142ZM185.62 28.1639L185.776 26.6721L181.849 26.261L184.512 29.1758L185.62 28.1639ZM1.98427 59.1319C30.5514 34.291 73.1499 10.4512 124.914 4.74096C176.642 -0.965163 237.647 11.4167 303.116 59.2115L304.884 56.7885C238.853 8.58329 177.108 -4.03484 124.586 1.75904C72.1001 7.5488 28.9486 31.709 0.0157316 56.8681L1.98427 59.1319ZM21.7126 49.5086C13.7378 52.3273 6.74112 54.7997 0.587918 56.5577L1.41208 59.4423C7.67243 57.6536 14.7641 55.1464 22.7123 52.3371L21.7126 49.5086ZM122.055 25.8192C78.6036 29.3965 45.8687 40.9705 21.7126 49.5086L22.7123 52.3371C46.842 43.8083 79.2642 32.3523 122.301 28.8091L122.055 25.8192ZM111.5 57.5C111.5 46.1804 115.976 35.9094 123.258 28.3552L121.098 26.2732C113.299 34.364 108.5 45.3731 108.5 57.5H111.5ZM153.5 99.5C130.304 99.5 111.5 80.6959 111.5 57.5H108.5C108.5 82.3528 128.647 102.5 153.5 102.5V99.5ZM195.5 57.5C195.5 80.6959 176.696 99.5 153.5 99.5V102.5C178.353 102.5 198.5 82.3528 198.5 57.5H195.5ZM184.512 29.1758C191.338 36.6452 195.5 46.5848 195.5 57.5H198.5C198.5 45.807 194.038 35.1526 186.727 27.152L184.512 29.1758ZM304.54 56.6008C259.675 39.2724 220.288 30.2843 185.776 26.6721L185.463 29.6558C219.693 33.2385 258.822 42.1591 303.46 59.3993L304.54 56.6008Z" fill="black"/>
</svg>
