<svg width="306" height="192" viewBox="0 0 306 192" fill="none" xmlns="http://www.w3.org/2000/svg">
<path d="M222.852 139.895C223.465 145.362 225.785 151.053 230.853 156.395C233.315 152.209 236.505 146.689 237.556 139.895C232.119 143.895 225.488 141.561 222.852 139.895Z" fill="black"/>
<path fill-rule="evenodd" clip-rule="evenodd" d="M230.853 90.3947C212.853 115.395 187.653 165.795 230.853 167.395C283.853 166.895 233.853 95.3947 230.853 90.3947ZM230.853 110.895C219.353 118.895 203.253 140.295 230.853 161.895C241.353 149.895 259.353 133.895 230.853 110.895Z" fill="black"/>
<path d="M230.853 114.895C227.79 118.537 224.119 124.95 223.012 132.395C225.731 130.728 232.487 128.395 237.761 132.395C237.233 127.143 235.238 121.303 230.853 114.895Z" fill="black"/>
<path d="M223.012 132.395C224.119 124.95 227.79 118.537 230.853 114.895C235.238 121.303 237.233 127.143 237.761 132.395M223.012 132.395C225.731 130.728 232.487 128.395 237.761 132.395M223.012 132.395C222.654 134.806 222.565 137.326 222.852 139.895M237.761 132.395C238.027 135.045 237.92 137.546 237.556 139.895M222.852 139.895C223.465 145.362 225.785 151.053 230.853 156.395C233.315 152.209 236.505 146.689 237.556 139.895M222.852 139.895C225.488 141.561 232.119 143.895 237.556 139.895M230.853 90.3947C212.853 115.395 187.653 165.795 230.853 167.395C283.853 166.895 233.853 95.3947 230.853 90.3947ZM230.853 110.895C219.353 118.895 203.253 140.295 230.853 161.895C241.353 149.895 259.353 133.895 230.853 110.895Z" stroke="black"/>
<path d="M144.852 163.895C145.465 169.362 147.785 175.053 152.853 180.395C155.315 176.209 158.505 170.689 159.556 163.895C154.119 167.895 147.488 165.561 144.852 163.895Z" fill="black"/>
<path fill-rule="evenodd" clip-rule="evenodd" d="M152.853 114.395C134.853 139.395 109.653 189.795 152.853 191.395C205.853 190.895 155.853 119.395 152.853 114.395ZM152.853 134.895C141.353 142.895 125.253 164.295 152.853 185.895C163.353 173.895 181.353 157.895 152.853 134.895Z" fill="black"/>
<path d="M152.853 138.895C149.79 142.537 146.119 148.95 145.012 156.395C147.731 154.728 154.487 152.395 159.761 156.395C159.233 151.143 157.238 145.303 152.853 138.895Z" fill="black"/>
<path d="M145.012 156.395C146.119 148.95 149.79 142.537 152.853 138.895C157.238 145.303 159.233 151.143 159.761 156.395M145.012 156.395C147.731 154.728 154.487 152.395 159.761 156.395M145.012 156.395C144.654 158.806 144.565 161.326 144.852 163.895M159.761 156.395C160.027 159.045 159.92 161.546 159.556 163.895M144.852 163.895C145.465 169.362 147.785 175.053 152.853 180.395C155.315 176.209 158.505 170.689 159.556 163.895M144.852 163.895C147.488 165.561 154.119 167.895 159.556 163.895M152.853 114.395C134.853 139.395 109.653 189.795 152.853 191.395C205.853 190.895 155.853 119.395 152.853 114.395ZM152.853 134.895C141.353 142.895 125.253 164.295 152.853 185.895C163.353 173.895 181.353 157.895 152.853 134.895Z" stroke="black"/>
<path d="M66.9993 140.895C67.6116 146.362 69.9318 152.053 75 157.395C77.4623 153.209 80.6523 147.689 81.7033 140.895C76.2659 144.895 69.6351 142.561 66.9993 140.895Z" fill="black"/>
<path fill-rule="evenodd" clip-rule="evenodd" d="M75 91.3947C57 116.395 31.8 166.795 75 168.395C128 167.895 78 96.3947 75 91.3947ZM75 111.895C63.5 119.895 47.4 141.295 75 162.895C85.5 150.895 103.5 134.895 75 111.895Z" fill="black"/>
<path d="M75 115.895C71.9372 119.537 68.266 125.95 67.1594 133.395C69.8783 131.728 76.6345 129.395 81.9081 133.395C81.3805 128.143 79.3848 122.303 75 115.895Z" fill="black"/>
<path d="M67.1594 133.395C68.266 125.95 71.9372 119.537 75 115.895C79.3848 122.303 81.3805 128.143 81.9081 133.395M67.1594 133.395C69.8783 131.728 76.6345 129.395 81.9081 133.395M67.1594 133.395C66.801 135.806 66.7117 138.326 66.9993 140.895M81.9081 133.395C82.1743 136.045 82.0666 138.546 81.7033 140.895M66.9993 140.895C67.6116 146.362 69.9318 152.053 75 157.395C77.4623 153.209 80.6523 147.689 81.7033 140.895M66.9993 140.895C69.6351 142.561 76.2659 144.895 81.7033 140.895M75 91.3947C57 116.395 31.8 166.795 75 168.395C128 167.895 78 96.3947 75 91.3947ZM75 111.895C63.5 119.895 47.4 141.295 75 162.895C85.5 150.895 103.5 134.895 75 111.895Z" stroke="black"/>
<path d="M75.1904 92.3947C57.6904 117.395 33.1904 167.395 75.1904 167.395C117.19 167.395 92.6904 117.395 75.1904 92.3947Z" fill="black" stroke="black" stroke-width="2"/>
<path d="M153.381 115.895C135.881 140.895 111.381 190.895 153.381 190.895C195.381 190.895 170.881 140.895 153.381 115.895Z" fill="black" stroke="black" stroke-width="2"/>
<path d="M231.381 92.8947C213.881 117.895 189.381 167.895 231.381 167.895C273.381 167.895 248.881 117.895 231.381 92.8947Z" fill="black" stroke="black" stroke-width="2"/>
<path d="M2 2.39471C66 22.5 164 40.259 304.5 2.39471C257 22.3963 152.5 77 2 2.39471Z" fill="black" stroke="black" stroke-width="3"/>
<path fill-rule="evenodd" clip-rule="evenodd" d="M304 3.39468H1C39.5738 14.8844 77.9132 20.5842 113.791 22.6562C120.69 34.8333 136.239 42 154 42C172.181 42 187.47 34.4909 193.832 21.7854C248.168 17.6195 289.076 7.42676 304 3.39468Z" fill="black"/>
<path d="M1 3.39468V1.89468L0.571796 4.83227L1 3.39468ZM304 3.39468L304.391 4.84276L304 1.89468V3.39468ZM113.791 22.6562L115.096 21.9167L114.693 21.2058L113.877 21.1587L113.791 22.6562ZM193.832 21.7854L193.718 20.2898L192.871 20.3547L192.491 21.1138L193.832 21.7854ZM1 4.89468H304V1.89468H1V4.89468ZM113.877 21.1587C78.0947 19.0922 39.8725 13.4083 1.4282 1.9571L0.571796 4.83227C39.2751 16.3606 77.7316 22.0762 113.704 24.1537L113.877 21.1587ZM154 40.5C136.571 40.5 121.64 33.4673 115.096 21.9167L112.485 23.3956C119.74 36.1993 135.906 43.5 154 43.5V40.5ZM192.491 21.1138C186.468 33.1413 171.832 40.5 154 40.5V43.5C172.529 43.5 188.472 35.8405 195.174 22.457L192.491 21.1138ZM303.609 1.9466C288.74 5.96382 247.929 16.1334 193.718 20.2898L193.947 23.281C248.407 19.1056 289.412 8.88971 304.391 4.84276L303.609 1.9466Z" fill="black"/>
</svg>
