<svg width="305" height="192" viewBox="0 0 305 192" fill="none" xmlns="http://www.w3.org/2000/svg">
<path d="M221.852 139.5C222.465 144.968 224.785 150.658 229.853 156C232.315 151.814 235.505 146.294 236.556 139.5C231.119 143.5 224.488 141.167 221.852 139.5Z" fill="black"/>
<path fill-rule="evenodd" clip-rule="evenodd" d="M229.853 90C211.853 115 186.653 165.4 229.853 167C282.853 166.5 232.853 95 229.853 90ZM229.853 110.5C218.353 118.5 202.253 139.9 229.853 161.5C240.353 149.5 258.353 133.5 229.853 110.5Z" fill="black"/>
<path d="M229.853 114.5C226.79 118.142 223.119 124.555 222.012 132C224.731 130.333 231.487 128 236.761 132C236.233 126.748 234.238 120.909 229.853 114.5Z" fill="black"/>
<path d="M222.012 132C223.119 124.555 226.79 118.142 229.853 114.5C234.238 120.909 236.233 126.748 236.761 132M222.012 132C224.731 130.333 231.487 128 236.761 132M222.012 132C221.654 134.411 221.565 136.931 221.852 139.5M236.761 132C237.027 134.651 236.92 137.151 236.556 139.5M221.852 139.5C222.465 144.968 224.785 150.658 229.853 156C232.315 151.814 235.505 146.294 236.556 139.5M221.852 139.5C224.488 141.167 231.119 143.5 236.556 139.5M229.853 90C211.853 115 186.653 165.4 229.853 167C282.853 166.5 232.853 95 229.853 90ZM229.853 110.5C218.353 118.5 202.253 139.9 229.853 161.5C240.353 149.5 258.353 133.5 229.853 110.5Z" stroke="black"/>
<path d="M143.852 163.5C144.465 168.968 146.785 174.658 151.853 180C154.315 175.814 157.505 170.294 158.556 163.5C153.119 167.5 146.488 165.167 143.852 163.5Z" fill="black"/>
<path fill-rule="evenodd" clip-rule="evenodd" d="M151.853 114C133.853 139 108.653 189.4 151.853 191C204.853 190.5 154.853 119 151.853 114ZM151.853 134.5C140.353 142.5 124.253 163.9 151.853 185.5C162.353 173.5 180.353 157.5 151.853 134.5Z" fill="black"/>
<path d="M151.853 138.5C148.79 142.142 145.119 148.555 144.012 156C146.731 154.333 153.487 152 158.761 156C158.233 150.748 156.238 144.909 151.853 138.5Z" fill="black"/>
<path d="M144.012 156C145.119 148.555 148.79 142.142 151.853 138.5C156.238 144.909 158.233 150.748 158.761 156M144.012 156C146.731 154.333 153.487 152 158.761 156M144.012 156C143.654 158.411 143.565 160.931 143.852 163.5M158.761 156C159.027 158.651 158.92 161.151 158.556 163.5M143.852 163.5C144.465 168.968 146.785 174.658 151.853 180C154.315 175.814 157.505 170.294 158.556 163.5M143.852 163.5C146.488 165.167 153.119 167.5 158.556 163.5M151.853 114C133.853 139 108.653 189.4 151.853 191C204.853 190.5 154.853 119 151.853 114ZM151.853 134.5C140.353 142.5 124.253 163.9 151.853 185.5C162.353 173.5 180.353 157.5 151.853 134.5Z" stroke="black"/>
<path d="M65.9993 140.5C66.6116 145.968 68.9318 151.658 74 157C76.4624 152.814 79.6523 147.294 80.7033 140.5C75.266 144.5 68.6351 142.167 65.9993 140.5Z" fill="black"/>
<path fill-rule="evenodd" clip-rule="evenodd" d="M74 91C56 116 30.8 166.4 74 168C127 167.5 77 96 74 91ZM74 111.5C62.5 119.5 46.4 140.9 74 162.5C84.5 150.5 102.5 134.5 74 111.5Z" fill="black"/>
<path d="M74 115.5C70.9372 119.142 67.266 125.555 66.1594 133C68.8783 131.333 75.6345 129 80.9081 133C80.3805 127.748 78.3848 121.909 74 115.5Z" fill="black"/>
<path d="M66.1594 133C67.266 125.555 70.9372 119.142 74 115.5C78.3848 121.909 80.3805 127.748 80.9081 133M66.1594 133C68.8783 131.333 75.6345 129 80.9081 133M66.1594 133C65.801 135.411 65.7117 137.931 65.9993 140.5M80.9081 133C81.1743 135.651 81.0666 138.151 80.7033 140.5M65.9993 140.5C66.6116 145.968 68.9318 151.658 74 157C76.4624 152.814 79.6523 147.294 80.7033 140.5M65.9993 140.5C68.6351 142.167 75.266 144.5 80.7033 140.5M74 91C56 116 30.8 166.4 74 168C127 167.5 77 96 74 91ZM74 111.5C62.5 119.5 46.4 140.9 74 162.5C84.5 150.5 102.5 134.5 74 111.5Z" stroke="black"/>
<path d="M74.1904 92C56.6904 117 32.1904 167 74.1904 167C116.19 167 91.6904 117 74.1904 92Z" fill="black" stroke="black" stroke-width="2"/>
<path d="M152.381 115.5C134.881 140.5 110.381 190.5 152.381 190.5C194.381 190.5 169.881 140.5 152.381 115.5Z" fill="black" stroke="black" stroke-width="2"/>
<path d="M230.381 92.5C212.881 117.5 188.381 167.5 230.381 167.5C272.381 167.5 247.881 117.5 230.381 92.5Z" fill="black" stroke="black" stroke-width="2"/>
<path d="M1 2C79.5 19.5 160 31 303.5 2C273 16 129 64.5 1 2Z" fill="black" stroke="black" stroke-width="3"/>
</svg>
